<svg width="100" height="100" viewBox="0 0 100 100" fill="none" xmlns="http://www.w3.org/2000/svg">
<rect x="2" y="2" width="96" height="96" rx="48" fill="#339ACE"/>
<rect x="2" y="2" width="96" height="96" rx="48" stroke="white" stroke-width="4"/>
<path d="M49.3419 67.5133C48.2219 67.5133 47.1486 67.3578 46.1219 67.0467C45.0953 66.7356 44.1619 66.3156 43.3219 65.7867C42.513 65.2578 41.8286 64.6511 41.2686 63.9667C40.7397 63.2511 40.3819 62.52 40.1953 61.7733L41.8286 61.2133L41.4086 66.9533H34.4553V32.4667H41.9686V48.1467L40.4286 47.5867C40.6153 46.7778 40.973 46.0311 41.5019 45.3467C42.0308 44.6311 42.6997 44.0089 43.5086 43.48C44.3175 42.92 45.2041 42.4844 46.1686 42.1733C47.133 41.8622 48.1286 41.7067 49.1553 41.7067C51.3019 41.7067 53.1997 42.2667 54.8486 43.3867C56.5286 44.4756 57.8508 46 58.8153 47.96C59.7797 49.8889 60.2619 52.0978 60.2619 54.5867C60.2619 57.1067 59.7797 59.3467 58.8153 61.3067C57.8819 63.2356 56.5908 64.76 54.9419 65.88C53.293 66.9689 51.4264 67.5133 49.3419 67.5133ZM47.3819 61.2133C48.5019 61.2133 49.4819 60.9333 50.3219 60.3733C51.1619 59.8133 51.7997 59.0511 52.2353 58.0867C52.7019 57.0911 52.9353 55.9244 52.9353 54.5867C52.9353 53.28 52.7019 52.1289 52.2353 51.1333C51.7997 50.1378 51.1619 49.3756 50.3219 48.8467C49.4819 48.3178 48.5019 48.0533 47.3819 48.0533C46.2308 48.0533 45.2353 48.3178 44.3953 48.8467C43.5553 49.3756 42.9019 50.1378 42.4353 51.1333C41.9686 52.1289 41.7353 53.28 41.7353 54.5867C41.7353 55.9244 41.9686 57.0911 42.4353 58.0867C42.9019 59.0511 43.5553 59.8133 44.3953 60.3733C45.2353 60.9333 46.2308 61.2133 47.3819 61.2133Z" fill="white"/>
<circle cx="66.5928" cy="63.5928" r="3.59277" fill="white"/>
</svg>
